<svg xmlns="http://www.w3.org/2000/svg" version="1.1" xmlns:xlink="http://www.w3.org/1999/xlink" xmlns:svgjs="http://svgjs.dev/svgjs" width="1000" height="338" viewBox="0 0 1000 338"><g transform="matrix(1,0,0,1,-0.6060606060606233,-0.2009285805108334)"><svg viewBox="0 0 396 134" data-background-color="#ffffff" preserveAspectRatio="xMidYMid meet" height="338" width="1000" xmlns="http://www.w3.org/2000/svg" xmlns:xlink="http://www.w3.org/1999/xlink"><g id="tight-bounds" transform="matrix(1,0,0,1,0.2400000000000091,0.07965807629719279)"><svg viewBox="0 0 395.52 133.8406838474056" height="133.8406838474056" width="395.52"><g><svg viewBox="0 0 633.8468719592727 214.48851839999998" height="133.8406838474056" width="395.52"><g transform="matrix(1,0,0,1,0,56.75553192727271)"><svg viewBox="0 0 395.52 100.97745454545455" height="100.97745454545455" width="395.52"><g id="textblocktransform"><svg viewBox="0 0 395.52 100.97745454545455" height="100.97745454545455" width="395.52" id="textblock"><g><svg viewBox="0 0 395.52 100.97745454545455" height="100.97745454545455" width="395.52"><g transform="matrix(1,0,0,1,0,0)"><svg width="395.52" viewBox="1.5499999523162842 -33.70000076293945 131.989990234375 33.70000076293945" height="100.97745454545455" data-palette-color="#3d5e34"><path d="M30.65-33.7L19 0 12.9 0 1.55-33.7 7.05-33.7 11.35-20.3Q12.75-16 13.9-12.08 15.05-8.15 15.5-6.4L15.5-6.4 16-4.6Q17.6-10.6 20.8-20.3L20.8-20.3 25.15-33.7 30.65-33.7ZM61.25-33.7L61.25 0 56.1 0 56.1-14.75 40.95-14.75 40.95 0 35.8 0 35.8-33.7 40.95-33.7 40.95-19.2 56.1-19.2 56.1-33.7 61.25-33.7ZM78.15-29.4L78.15-29.4 73.75-29.4 73.75-17.1 78.4-17.1Q81.6-17.1 83.25-18.78 84.9-20.45 84.9-23.25L84.9-23.25Q84.9-29.4 78.15-29.4ZM73.75-12.8L73.75 0 68.6 0 68.6-33.7 78-33.7Q83.8-33.7 86.95-30.88 90.1-28.05 90.1-23.2L90.1-23.2Q90.05-19.65 88.3-17.18 86.55-14.7 83.45-13.6L83.45-13.6 92.25 0 86.1 0 78.2-12.8 73.75-12.8ZM102.64-13.2L101.64 0 96.54 0 99.14-33.7 105.24-33.7 109.74-21.4Q110.94-18.25 112.14-14.73 113.34-11.2 113.94-9.25L113.94-9.25 114.59-7.3Q116.89-14.1 119.64-21.4L119.64-21.4 124.34-33.7 130.44-33.7 133.54 0 128.44 0 127.24-13.2 126.19-26.7Q123.94-20.35 121.29-13.2L121.29-13.2 116.59-0.65 112.54-0.65 107.99-13.2 103.44-26.5Q103.44-24.3 102.64-13.2L102.64-13.2Z" opacity="1" transform="matrix(1,0,0,1,0,0)" fill="#3d5e34" class="wordmark-text-0" data-fill-palette-color="primary" id="text-0"></path></svg></g></svg></g></svg></g></svg></g><g transform="matrix(1,0,0,1,419.3583535592727,0)"><svg viewBox="0 0 214.48851839999998 214.48851839999998" height="214.48851839999998" width="214.48851839999998"><g><svg></svg></g><g id="icon-0"><svg viewBox="0 0 214.48851839999998 214.48851839999998" height="214.48851839999998" width="214.48851839999998"><g><rect width="195.02567136" height="195.02567136" x="9.731423519999993" y="9.731423519999993" fill="#3d5e34" data-fill-palette-color="accent"></rect><rect width="195.02567136" height="195.02567136" x="-5.329070518200751e-15" y="-5.329070518200751e-15" fill="#3d5e34" opacity="0.5" data-fill-palette-color="accent"></rect></g><g transform="matrix(1,0,0,1,27.80406719999999,34.159282559999994)"><svg viewBox="0 0 158.880384 146.16995328" height="146.16995328" width="158.880384"><g><svg xmlns:x="http://ns.adobe.com/Extensibility/1.0/" xmlns:i="http://ns.adobe.com/AdobeIllustrator/10.0/" xmlns:graph="http://ns.adobe.com/Graphs/1.0/" xmlns="http://www.w3.org/2000/svg" xmlns:xlink="http://www.w3.org/1999/xlink" version="1.1" x="0" y="0" viewBox="7 9 50 46" enable-background="new 0 0 64 64" xml:space="preserve" height="146.16995328" width="158.880384" class="icon-s-0" data-fill-palette-color="background" id="s-0"><g fill="#ffffff" data-fill-palette-color="background"><g fill="#ffffff" data-fill-palette-color="background"><path d="M56 9H8c-0.552 0-1 0.448-1 1v36c0 0.553 0.448 1 1 1h23v6h-9c-0.552 0-1 0.447-1 1s0.448 1 1 1h20c0.553 0 1-0.447 1-1s-0.447-1-1-1h-9v-6h23c0.553 0 1-0.447 1-1V10C57 9.448 56.553 9 56 9zM55 45H9V11h46V45z" fill="#ffffff" data-fill-palette-color="background"></path><path d="M23.293 32.707C23.488 32.902 23.744 33 24 33s0.512-0.098 0.707-0.293c0.391-0.391 0.391-1.023 0-1.414L21.414 28l3.293-3.293c0.391-0.391 0.391-1.023 0-1.414s-1.023-0.391-1.414 0l-4 4c-0.391 0.391-0.391 1.023 0 1.414L23.293 32.707z" fill="#ffffff" data-fill-palette-color="background"></path><path d="M39.293 32.707C39.488 32.902 39.744 33 40 33s0.512-0.098 0.707-0.293l4-4c0.391-0.391 0.391-1.023 0-1.414l-4-4c-0.391-0.391-1.023-0.391-1.414 0s-0.391 1.023 0 1.414L42.586 28l-3.293 3.293C38.902 31.684 38.902 32.316 39.293 32.707z" fill="#ffffff" data-fill-palette-color="background"></path><path d="M29.757 36.97C29.839 36.99 29.92 37 30.001 37c0.448 0 0.855-0.303 0.969-0.758l4-16c0.135-0.536-0.191-1.079-0.728-1.213-0.535-0.138-1.079 0.192-1.212 0.728l-4 16C28.896 36.293 29.222 36.836 29.757 36.97z" fill="#ffffff" data-fill-palette-color="background"></path></g></g></svg></g></svg></g></svg></g></svg></g></svg></g><defs></defs></svg><rect width="395.52" height="133.8406838474056" fill="none" stroke="none" visibility="hidden"></rect></g></svg></g></svg>